<?xml version="1.0" encoding="UTF-8"?>
<svg id="SVGDoc" width="64" height="41" xmlns="http://www.w3.org/2000/svg" version="1.1" xmlns:xlink="http://www.w3.org/1999/xlink" xmlns:avocode="https://avocode.com/" viewBox="0 0 64 41"><defs></defs><desc>Generated with Avocode.</desc><g><g><title>Combined Shape</title><path d="M31.05234,36.17657c0,-0.88633 0.7055,-1.6079 1.57209,-1.6079c0.86659,0 1.5721,0.72157 1.5721,1.6079c0,0.88633 -0.70551,1.60763 -1.5721,1.60763c-0.86659,0 -1.57209,-0.7213 -1.57209,-1.60763zM58.5831,20.46862c-0.66465,0 -1.25813,0.42779 -1.48088,1.06843l-1.72394,4.95088l-4.76047,-14.14893c-0.22506,-0.66481 -0.84064,-1.12729 -1.53304,-1.0834c-0.68777,0.02049 -1.28177,0.49611 -1.46778,1.1738l-4.28003,15.63489l-2.18767,-5.36921c-0.24407,-0.59911 -0.81598,-0.98933 -1.45057,-0.98933h-3.9301c-0.86839,0 -1.5721,0.71999 -1.5721,1.6079v8.32065c-0.49251,-0.17895 -1.02022,-0.28143 -1.57209,-0.28143c-2.60054,0 -4.71602,2.16366 -4.71602,4.8237c0,2.65977 2.11548,4.82343 4.71602,4.82343c2.6008,0 4.71602,-2.16366 4.71602,-4.82343v-11.25502h1.31055l3.527,8.65779c0.25717,0.63196 0.882,1.03006 1.54665,0.98618c0.66774,-0.04152 1.23733,-0.51188 1.41769,-1.17144l4.14283,-15.13247l4.58114,13.61497c0.21787,0.64536 0.81032,1.08025 1.47832,1.08419h0.00847c0.66466,0 1.25788,-0.42779 1.48063,-1.06843l2.85849,-8.20818h4.30778v-3.21554zM29.9417,29.56361c0.54107,-0.33135 0.83653,-0.96069 0.75072,-1.60001l-2.67351,-19.82294c-0.35121,-2.60381 1.62682,-4.92513 4.19679,-4.92513c2.57793,0 4.55827,2.33551 4.1937,4.94588l-1.48243,10.55632h3.1835l1.411,-10.10172c0.63511,-4.54752 -2.81507,-8.61601 -7.30629,-8.61601h-0.00025c-4.47709,0 -7.92316,4.04405 -7.31117,8.58027l2.16789,16.07294l-1.38095,-1.03007c-0.39154,-0.29299 -0.89331,-0.38575 -1.3609,-0.24674c-0.46683,0.1369 -0.84527,0.48692 -1.02537,0.94782l-1.51994,3.88691l-4.95495,-15.83828c-0.20631,-0.65877 -0.80134,-1.10942 -1.47755,-1.11809h-0.02004c-0.66851,0 -1.26507,0.43278 -1.48448,1.07946l-4.8098,14.14341l-1.69362,-4.93406c-0.22095,-0.64405 -0.81546,-1.075 -1.48268,-1.075h-5.86137v3.21554h4.74685l2.81405,8.20109c0.22018,0.64458 0.8152,1.07552 1.48294,1.07552h0.00231c0.66773,0 1.26225,-0.43226 1.4814,-1.0771l4.74223,-13.9437l4.8527,15.51061c0.20271,0.64615 0.77924,1.09286 1.44235,1.1173c0.01336,0.00053 0.02697,0.00079 0.04033,0.00079c0.64847,0.0021 1.23425,-0.39468 1.47498,-1.01036l2.39192,-6.1181l2.73646,2.04173c0.50947,0.38181 1.19211,0.41229 1.73318,0.08172" fill="#ffffff" fill-opacity="1"></path></g></g></svg>